<svg width="560" height="49" viewBox="0 0 560 49" fill="none" xmlns="http://www.w3.org/2000/svg">
<rect y="0.109131" width="131" height="48" rx="24" fill="black"/>
<path fill-rule="evenodd" clip-rule="evenodd" d="M69.668 17.1304C70.5 16.1544 71.06 14.7944 70.908 13.4424C69.708 13.489 68.2587 14.217 67.3973 15.193C66.628 16.057 65.952 17.441 66.1347 18.7664C67.4707 18.8677 68.836 18.1077 69.668 17.1304ZM76.1667 30.0251C76.14 30.1051 75.6507 31.665 74.4667 33.273C73.4427 34.665 72.38 36.0504 70.7067 36.0797C69.0627 36.1064 68.5333 35.173 66.6533 35.173C64.7733 35.173 64.1867 36.0504 62.628 36.1064C61.0147 36.1637 59.7827 34.6037 58.7507 33.217C56.6413 30.381 55.0293 25.2051 57.1947 21.7104C57.7346 20.8463 58.4827 20.1314 59.3704 19.6313C60.2582 19.1312 61.2572 18.8618 62.276 18.8477C63.8627 18.821 65.36 19.841 66.3293 19.841C67.3 19.841 69.1187 18.6144 71.032 18.7944C71.832 18.825 74.0813 19.0944 75.5253 21.0597C75.408 21.1264 72.8427 22.5144 72.8693 25.4037C72.904 28.861 76.1307 30.0104 76.1667 30.0251Z" fill="white"/>
<rect x="143" y="0.109131" width="131" height="48" rx="24" fill="#5A6175"/>
<path d="M210.559 37.4664H204.993V24.109H202.267V19.501H205.027V16.741C205.027 12.9784 206.587 10.7517 211.016 10.7517H214.7V15.3597H212.407C210.681 15.3597 210.571 16.0064 210.571 17.2077V19.501H214.733L214.244 24.109H210.559V37.4664Z" fill="white"/>
<rect x="286" y="0.109131" width="131" height="48" rx="24" fill="#2EBD59"/>
<path d="M337.5 24.1091C337.5 16.3758 343.768 10.1091 351.5 10.1091C359.233 10.1091 365.5 16.3771 365.5 24.1091C365.5 31.8411 359.233 38.1091 351.5 38.1091C343.767 38.1091 337.5 31.8398 337.5 24.1091ZM359.633 26.4878C359.708 26.3657 359.758 26.23 359.781 26.0885C359.803 25.947 359.797 25.8025 359.764 25.6632C359.731 25.5239 359.67 25.3926 359.586 25.2767C359.502 25.1608 359.395 25.0626 359.273 24.9878C354.953 22.3318 348.632 21.5851 343.548 23.1278C343.288 23.2253 343.074 23.4183 342.951 23.6676C342.828 23.9169 342.804 24.2037 342.885 24.4697C342.966 24.7358 343.145 24.961 343.386 25.0996C343.627 25.2382 343.912 25.2797 344.183 25.2158C348.633 23.8651 354.369 24.5358 358.132 26.8491C358.254 26.9242 358.39 26.9745 358.532 26.997C358.673 27.0195 358.818 27.0139 358.957 26.9805C359.097 26.947 359.228 26.8864 359.344 26.8021C359.46 26.7178 359.558 26.6101 359.633 26.4878ZM356.72 30.5905C356.918 30.7112 357.155 30.7485 357.38 30.6941C357.492 30.6672 357.597 30.6186 357.69 30.551C357.782 30.4835 357.861 30.3983 357.921 30.3005C357.98 30.2026 358.02 30.0939 358.038 29.9806C358.056 29.8673 358.051 29.7516 358.024 29.6401C357.997 29.5286 357.949 29.4235 357.881 29.3308C357.814 29.2381 357.729 29.1596 357.631 29.0998C353.941 26.8451 349.367 26.3198 344.033 27.5398C343.922 27.5653 343.816 27.6125 343.723 27.6788C343.629 27.7451 343.55 27.8291 343.489 27.9261C343.428 28.0231 343.386 28.1312 343.367 28.2442C343.348 28.3571 343.351 28.4728 343.377 28.5845C343.402 28.6962 343.449 28.8018 343.516 28.8952C343.582 28.9887 343.666 29.0682 343.763 29.1292C343.86 29.1901 343.968 29.2314 344.081 29.2506C344.194 29.2698 344.31 29.2666 344.421 29.2411C349.295 28.1278 353.433 28.5825 356.72 30.5905ZM343.516 20.8998C347.824 19.5931 355.268 19.8385 359.781 22.5185C359.929 22.6062 360.093 22.6639 360.263 22.6884C360.433 22.7128 360.607 22.7035 360.773 22.661C360.94 22.6185 361.096 22.5436 361.234 22.4405C361.372 22.3375 361.488 22.2083 361.575 22.0605C361.663 21.9126 361.721 21.7489 361.745 21.5787C361.77 21.4085 361.76 21.2352 361.718 21.0686C361.675 20.902 361.6 20.7454 361.497 20.6078C361.394 20.4702 361.265 20.3542 361.117 20.2665C355.923 17.1825 347.7 16.8931 342.757 18.3945C342.425 18.4952 342.146 18.7239 341.982 19.0303C341.819 19.3366 341.783 19.6954 341.884 20.0278C341.985 20.3602 342.213 20.639 342.52 20.8027C342.826 20.9665 343.185 21.0019 343.517 20.9011L343.516 20.8998Z" fill="white"/>
<rect x="429" y="0.109131" width="131" height="48" rx="24" fill="#FAF6F4"/>
<g clip-path="url(#clip0_19_708)">
<path d="M510.119 24.4085C510.119 23.0975 510.012 22.1408 509.782 21.1487H494.811V27.066H503.599C503.422 28.5365 502.465 30.7511 500.339 32.2392L500.309 32.4374L505.043 36.1043L505.371 36.137C508.382 33.3555 510.119 29.2629 510.119 24.4085Z" fill="#4285F4"/>
<path d="M494.811 39.9992C499.117 39.9992 502.731 38.5818 505.371 36.137L500.339 32.2392C498.993 33.1782 497.185 33.8337 494.811 33.8337C490.595 33.8337 487.016 31.0523 485.74 27.2078L485.553 27.2236L480.632 31.0327L480.567 31.2117C483.189 36.4203 488.575 39.9992 494.811 39.9992Z" fill="#34A853"/>
<path d="M485.74 27.2079C485.404 26.2157 485.209 25.1526 485.209 24.0543C485.209 22.9558 485.404 21.8928 485.723 20.9007L485.714 20.6894L480.73 16.8191L480.567 16.8966C479.487 19.0581 478.866 21.4854 478.866 24.0543C478.866 26.6232 479.487 29.0503 480.567 31.2118L485.74 27.2079Z" fill="#FBBC05"/>
<path d="M494.811 14.2745C497.806 14.2745 499.825 15.5678 500.977 16.6486L505.477 12.2548C502.713 9.68592 499.117 8.10913 494.811 8.10913C488.575 8.10913 483.189 11.6879 480.567 16.8966L485.723 20.9006C487.016 17.0561 490.595 14.2745 494.811 14.2745Z" fill="#EB4335"/>
</g>
<defs>
<clipPath id="clip0_19_708">
<rect width="48" height="32" fill="white" transform="translate(470.5 8.10913)"/>
</clipPath>
</defs>
</svg>
