<svg width="21" height="24" viewBox="0 0 21 24" fill="none" xmlns="http://www.w3.org/2000/svg">
<path fill-rule="evenodd" clip-rule="evenodd" d="M13.668 4.13038C14.5 3.15438 15.06 1.79438 14.908 0.442383C13.708 0.489049 12.2587 1.21705 11.3973 2.19305C10.628 3.05705 9.95201 4.44105 10.1347 5.76638C11.4707 5.86772 12.836 5.10772 13.668 4.13038ZM20.1667 17.0251C20.14 17.1051 19.6507 18.665 18.4667 20.273C17.4427 21.665 16.38 23.0504 14.7067 23.0797C13.0627 23.1064 12.5333 22.173 10.6533 22.173C8.77334 22.173 8.18667 23.0504 6.62801 23.1064C5.01467 23.1637 3.78267 21.6037 2.75067 20.217C0.641339 17.381 -0.970661 12.2051 1.19467 8.71038C1.7346 7.84627 2.48268 7.13143 3.37042 6.6313C4.25816 6.13118 5.25718 5.86176 6.27601 5.84772C7.86267 5.82105 9.36001 6.84105 10.3293 6.84105C11.3 6.84105 13.1187 5.61438 15.032 5.79438C15.832 5.82505 18.0813 6.09438 19.5253 8.05972C19.408 8.12638 16.8427 9.51438 16.8693 12.4037C16.904 15.861 20.1307 17.0104 20.1667 17.0251Z" fill="white"/>
</svg>
